<?xml version="1.0" encoding="UTF-8"?><svg id="Layer_2" xmlns="http://www.w3.org/2000/svg" viewBox="0 0 3000.17 302.8"><g id="Layer_1-2"><path d="M154.8,5.6h34c8.53,0,14.53,3.34,18,10l134.8,261.6c1.6,3.2,2.4,6,2.4,8.4,0,7.74-4.4,11.6-13.2,11.6h-26.8c-8.27,0-14.27-3.46-18-10.4l-22.53-45.36c-4.33-8.72-13.23-14.24-22.97-14.24H103.1c-9.74,0-18.64,5.52-22.97,14.24l-22.53,45.36c-3.2,6.94-9.2,10.4-18,10.4H12.8c-8.54,0-12.8-3.86-12.8-11.6,0-2.93.8-5.73,2.4-8.4L137.2,15.6c3.46-6.66,9.33-10,17.6-10ZM148.94,104.21l-19.03,37.82c-8.58,17.05,3.81,37.17,22.91,37.17h37.82c19.03,0,31.43-20,22.97-37.05l-18.78-37.82c-9.4-18.93-36.37-19-45.87-.12Z"/><path d="M430.4,297.2c-4.27,0-7.67-1.33-10.2-4-2.54-2.66-3.8-6.13-3.8-10.4V20c0-4.26,1.26-7.73,3.8-10.4,2.53-2.66,5.93-4,10.2-4h187.2c33.86,0,59.6,8.07,77.2,24.2,17.6,16.14,26.4,38.34,26.4,66.6,0,22.4-6.47,41.67-19.4,57.8-6.69,8.35-14.94,15.14-24.73,20.38-14.03,7.51-17.25,26.2-6.53,37.96l58.26,63.86c2.93,2.94,4.4,6,4.4,9.2,0,3.47-1.14,6.27-3.4,8.4-2.27,2.14-5.4,3.2-9.4,3.2h-33.2c-7.2,0-13.6-3.06-19.2-9.2l-82.32-92.61c-4.63-5.21-11.27-8.19-18.24-8.19h-73.84c-13.48,0-24.4,10.92-24.4,24.4v69.88c0,8.68-7.04,15.72-15.72,15.72h-23.08ZM615.59,53.6h-122c-13.48,0-24.4,10.92-24.4,24.4v37.2c0,13.48,10.92,24.4,24.4,24.4h122c15.2,0,27.33-4,36.4-12,9.06-8,13.6-18.53,13.6-31.6s-4.6-23.73-13.8-31.2c-9.2-7.46-21.27-11.2-36.2-11.2Z"/><path d="M890.19,78.4c-21.74,19.47-32.6,43.74-32.6,72.8s10.86,53.4,32.6,73c21.73,19.6,48.6,29.4,80.6,29.4,23.46,0,44.8-5.26,64-15.8,19.2-10.53,35.06-23.93,47.6-40.2,2.93-3.73,6.66-5.6,11.2-5.6,3.46,0,6.4,1.07,8.8,3.2l8,6.8c8.53,7.2,12.8,14.14,12.8,20.8,0,5.07-2.54,10.67-7.6,16.8-15.2,18.4-35.74,33.54-61.6,45.4-25.87,11.87-53.74,17.8-83.6,17.8-47.47,0-87.34-14.4-119.6-43.2-32.27-28.8-48.4-64.93-48.4-108.4s16.13-79.53,48.4-108.2C883.06,14.34,923.06,0,970.79,0c30.13,0,58.06,5.94,83.8,17.8,25.73,11.87,45.93,26.87,60.6,45,5.33,6.4,8,12.14,8,17.2,0,6.94-4.27,13.87-12.8,20.8l-8,6.4c-2.94,2.4-5.87,3.6-8.8,3.6-4.27,0-8-2-11.2-6-12.8-16.26-28.74-29.6-47.8-40-19.07-10.4-40.34-15.6-63.8-15.6-32,0-58.87,9.74-80.6,29.2Z"/><path d="M1334.19,5.6h34c8.53,0,14.53,3.34,18,10l134.8,261.6c1.6,3.2,2.4,6,2.4,8.4,0,7.74-4.4,11.6-13.2,11.6h-26.8c-8.27,0-14.27-3.46-18-10.4l-22.65-45.61c-4.26-8.57-13-13.99-22.57-13.99h-137.95c-9.57,0-18.32,5.42-22.57,13.99l-22.65,45.61c-3.2,6.94-9.2,10.4-18,10.4h-26.8c-8.54,0-12.8-3.86-12.8-11.6,0-2.93.8-5.73,2.4-8.4L1316.59,15.6c3.46-6.66,9.33-10,17.6-10ZM1328.72,103.43l-19.75,39.23c-8.44,16.76,3.75,36.54,22.51,36.54h39.23c18.71,0,30.9-19.66,22.57-36.42l-19.49-39.23c-9.24-18.6-35.75-18.67-45.09-.12Z"/><path d="M1836.44,53.6h-100.06c-10.38,0-18.8,8.42-18.8,18.8v210.4c0,4.54-1.34,8.07-4,10.6-2.67,2.54-6.27,3.8-10.8,3.8h-24c-4.27,0-7.67-1.33-10.2-4-2.54-2.66-3.8-6.13-3.8-10.4V72.4c0-10.38-8.42-18.8-18.8-18.8h-99.66c-10.79,0-19.54-8.75-19.54-19.54v-14.06c0-4.53,1.33-8.06,4-10.6,2.66-2.53,6.26-3.8,10.8-3.8h299.6c4.53,0,8.13,1.27,10.8,3.8,2.66,2.54,4,6.07,4,10.6v14.06c0,10.79-8.75,19.54-19.54,19.54Z"/><path d="M2075.58,297.2c-4.27,0-7.74-1.33-10.4-4-2.67-2.66-4-6.13-4-10.4v-89.67c0-6.89-2.65-13.51-7.39-18.5l-141.81-149.03c-2.4-2.4-3.6-5.33-3.6-8.8,0-7.46,3.86-11.2,11.6-11.2h34c6.93,0,13.33,3.07,19.2,9.2l94.73,102.02c10.62,11.43,28.71,11.43,39.33,0l94.73-102.02c6.13-6.13,12.66-9.2,19.6-9.2h34c7.73,0,11.6,3.6,11.6,10.8,0,2.45-.93,4.98-2.78,7.61-.64.91-1.38,1.75-2.15,2.56l-140.9,148.46c-4.73,4.99-7.37,11.6-7.37,18.47v89.29c0,4.54-1.34,8.07-4,10.6-2.67,2.54-6.27,3.8-10.8,3.8h-23.6Z"/><path d="M2353.18,297.2c-4.27,0-7.67-1.33-10.2-4-2.54-2.66-3.8-6.13-3.8-10.4V20c0-4.26,1.26-7.73,3.8-10.4,2.53-2.66,5.93-4,10.2-4h187.2c33.86,0,59.6,8.07,77.2,24.2,17.6,16.14,26.4,38.34,26.4,66.6,0,26.4-8.94,48.2-26.8,65.4-17.87,17.2-43.6,25.8-77.2,25.8h-123.6c-13.48,0-24.4,10.92-24.4,24.4v65.15c0,11.08-8.98,20.05-20.05,20.05h-18.75ZM2538.38,53.6h-122c-13.48,0-24.4,10.92-24.4,24.4v37.2c0,13.48,10.92,24.4,24.4,24.4h122c15.2,0,27.33-4,36.4-12,9.06-8,13.6-18.53,13.6-31.6s-4.6-23.73-13.8-31.2c-9.2-7.46-21.27-11.2-36.2-11.2Z"/><path d="M2727.37,297.2c-4.27,0-7.67-1.33-10.2-4-2.54-2.66-3.8-6.13-3.8-10.4V20c0-4.26,1.26-7.73,3.8-10.4,2.53-2.66,5.93-4,10.2-4h249.96c12.62,0,22.84,10.23,22.84,22.84v-1.64c0,9.87-5,26.02-23.5,26.02l-200.9.78c-5.3,0-9.6,4.3-9.6,9.6v52c0,5.3,4.3,9.6,9.6,9.6h147.2c4.53,0,8.13,1.27,10.8,3.8,2.66,2.54,4,6.07,4,10.6v19.2c0,4.54-1.34,8.07-4,10.6-2.67,2.54-6.27,3.8-10.8,3.8h-147.2c-5.3,0-9.6,4.3-9.6,9.6v57.2c0,5.3,4.3,9.6,9.6,9.6h200.4c13.25,0,24,10.75,24,24h0c0,13.25-10.75,24-24,24h-248.8Z"/></g></svg>
